<?xml version="1.0" standalone="no"?>
<!DOCTYPE svg PUBLIC "-//W3C//DTD SVG 20010904//EN"
 "http://www.w3.org/TR/2001/REC-SVG-20010904/DTD/svg10.dtd">
<svg version="1.0" xmlns="http://www.w3.org/2000/svg"
 width="296.000000pt" height="171.000000pt" viewBox="0 0 296.000000 171.000000"
 preserveAspectRatio="xMidYMid meet">
<metadata>
Created by potrace 1.16, written by Peter Selinger 2001-2019
</metadata>
<g transform="translate(0.000000,171.000000) scale(0.100000,-0.100000)"
fill="orange" stroke="none">
<path d="M1412 1659 l-51 -40 -70 25 c-53 19 -72 22 -79 13 -6 -7 -25 -34 -44
-61 l-34 -49 -75 2 -76 2 -19 -73 -20 -73 -72 -20 -72 -20 0 -77 0 -77 -60
-41 c-33 -22 -60 -43 -60 -45 0 -3 11 -34 25 -71 l25 -66 -29 -37 c-67 -87
-67 -81 -17 -146 l45 -57 -25 -65 c-13 -36 -24 -68 -24 -72 0 -3 27 -24 60
-46 l60 -40 0 -77 0 -77 58 -15 c82 -23 85 -26 106 -100 l19 -66 76 0 76 0 40
-60 c22 -33 45 -60 51 -60 5 0 38 11 72 24 l61 24 57 -44 c31 -24 60 -44 64
-44 4 0 33 20 64 44 l57 44 61 -24 c34 -13 67 -24 72 -24 6 0 29 27 51 60 l40
60 77 0 77 0 11 43 c26 102 23 98 113 123 l57 15 0 77 0 77 60 39 c33 21 60
42 60 46 0 4 -11 37 -24 73 l-25 65 44 57 c50 64 50 66 -11 141 l-33 40 18 50
c36 96 38 88 -29 135 l-60 42 0 76 0 76 -72 20 -71 20 -20 73 -19 73 -76 -2
-76 -2 -34 49 c-19 27 -38 54 -44 61 -7 9 -26 6 -79 -13 l-70 -25 -51 40 c-28
23 -58 41 -68 41 -10 0 -40 -18 -68 -41z m261 -396 c35 -5 38 -8 35 -37 -3
-30 -4 -31 -58 -31 -43 0 -55 -3 -58 -17 -2 -12 14 -26 57 -47 64 -33 81 -53
81 -96 0 -69 -58 -102 -165 -96 -45 2 -57 14 -49 45 6 25 9 27 49 20 100 -14
117 31 29 73 -43 20 -60 35 -70 60 -24 55 5 103 76 126 21 8 30 8 73 0z m-504
-18 c46 -23 56 -78 21 -110 -20 -18 -20 -18 5 -41 29 -27 34 -77 10 -110 -23
-33 -65 -45 -146 -42 l-74 3 -3 158 -3 157 81 0 c52 0 91 -5 109 -15z m301
-15 l0 -30 -63 0 -64 0 5 -30 c4 -29 6 -30 58 -30 l54 0 0 -35 0 -35 -55 0
-55 0 0 -34 0 -33 63 1 62 0 3 -32 3 -32 -105 0 -106 0 0 160 0 160 100 0 100
0 0 -30z m530 0 c0 -29 -2 -30 -45 -30 l-45 0 0 -130 0 -130 -40 0 -40 0 0
130 0 130 -40 0 c-38 0 -40 2 -40 30 l0 30 125 0 125 0 0 -30z m-913 -410 c49
-31 57 -104 16 -150 -21 -24 -40 -33 -78 -38 l-50 -7 -1 -55 -1 -55 -36 -3
-37 -3 0 159 c0 87 3 162 8 166 11 13 155 1 179 -14z m280 -6 c40 -30 44 -93
9 -129 -14 -14 -21 -25 -16 -25 10 0 50 -103 50 -130 0 -16 -7 -20 -35 -20
-33 0 -35 2 -49 51 -18 60 -32 79 -57 79 -15 0 -19 -10 -21 -62 l-3 -63 -35 0
-35 0 -3 154 c-2 117 1 157 10 163 7 5 45 7 85 6 54 -3 79 -9 100 -24z m161
-136 l-3 -163 -35 0 -35 0 -3 163 -2 162 40 0 40 0 -2 -162z m289 151 c5 -5 8
-21 5 -35 -4 -23 -8 -25 -39 -19 -80 15 -142 -43 -128 -119 10 -52 40 -74 105
-78 51 -3 55 -5 58 -30 3 -24 -1 -28 -33 -34 -50 -9 -114 1 -144 23 -49 37
-66 70 -66 131 0 106 67 172 176 172 30 0 60 -5 66 -11z m251 -26 l3 -33 -65
0 -66 0 0 -30 0 -30 60 0 60 0 0 -30 0 -30 -60 0 -60 0 0 -35 0 -34 68 -3 67
-3 0 -30 0 -30 -102 -3 -103 -3 0 166 0 166 98 -3 97 -3 3 -32z"/>
</g>
</svg>
